<svg xmlns="http://www.w3.org/2000/svg" xmlns:xlink="http://www.w3.org/1999/xlink" version="1.1" id="Your_Icon" x="0px" y="0px" width="100px" height="100px" viewBox="0 0 100 100" enable-background="new 0 0 100 100" xml:space="preserve">
<g>
	<path d="M50.162,5.143C25.554,5.051,5.529,25.06,5.44,49.836c-0.091,24.773,19.787,44.93,44.394,45.021   c24.609,0.091,44.635-19.918,44.727-44.696C94.648,25.391,74.771,5.233,50.162,5.143z M49.841,93.413   C26.027,93.32,6.791,73.814,6.878,49.841C6.967,25.868,26.34,6.5,50.159,6.588c23.813,0.087,43.048,19.596,42.964,43.568   C93.037,74.134,73.658,93.5,49.841,93.413z"/>
	<path d="M50.05,36.957c-7.157-0.027-12.978,5.794-13.007,12.995c-0.024,7.2,5.756,13.063,12.911,13.09   c7.155,0.024,12.978-5.793,13.003-12.994C62.984,42.846,57.201,36.983,50.05,36.957z M49.975,57.275   c-3.993-0.015-7.215-3.285-7.202-7.303c0.016-4.017,3.265-7.26,7.255-7.246c3.99,0.016,7.213,3.286,7.199,7.302   C57.212,54.047,53.964,57.291,49.975,57.275z"/>
	<g>
		<path d="M39.326,41.38c0.387-0.494,0.799-0.974,1.267-1.418c0.038-0.036,0.08-0.065,0.118-0.101L21.833,18.605    c-0.183,0.167-0.371,0.325-0.551,0.495c-0.919,0.868-1.784,1.771-2.611,2.697L39.326,41.38z"/>
		<path d="M41.638,39.07c5.344-4.096,13.141-3.422,18.004,1.772c4.283,4.569,4.953,11.205,2.078,16.231l26.614,10.519    c7.179-15.378,4.937-34.087-7.112-47.053C66.348,4.535,41.815,2.973,24.6,16.265L41.638,39.07z"/>
		<path d="M57.473,61.543c-5.291,3.391-12.509,2.527-17.117-2.385c-4.054-4.324-4.865-10.502-2.5-15.415L13.738,28.501    C4.172,44.509,5.684,65.374,18.776,79.46c14.676,15.793,38.75,17.511,55.927,4.785L57.473,61.543z"/>
	</g>
</g>
</svg>